<svg xmlns="http://www.w3.org/2000/svg" viewBox="0 0 64 64" fill="none" role="img" aria-label="Logo KalkulatorHari">
  <defs>
    <linearGradient id="calFill" x1="16" y1="14" x2="44" y2="50" gradientUnits="userSpaceOnUse">
      <stop stop-color="#1E4D6B"/>
      <stop offset="1" stop-color="#163A52"/>
    </linearGradient>
  </defs>
  <!-- orbit arc -->
  <path d="M10 24C10 14.0589 18.0589 6 28 6C38.5 6 46.5 14.5 47 25" stroke="#0891B2" stroke-width="2.25" stroke-linecap="round"/>
  <circle cx="49" cy="27" r="2.75" fill="#0891B2"/>
  <!-- calendar rings -->
  <rect x="24" y="12" width="4" height="7" rx="1.2" fill="#0891B2"/>
  <rect x="36" y="12" width="4" height="7" rx="1.2" fill="#0891B2"/>
  <!-- calendar body -->
  <rect x="18" y="16" width="28" height="34" rx="5" fill="url(#calFill)" stroke="#0891B2" stroke-width="2"/>
  <!-- day grid -->
  <rect x="22" y="22" width="5.5" height="5.5" rx="1" stroke="#0891B2" stroke-width="1.2"/>
  <rect x="29.25" y="22" width="5.5" height="5.5" rx="1" stroke="#0891B2" stroke-width="1.2"/>
  <rect x="36.5" y="22" width="5.5" height="5.5" rx="1" fill="#0891B2" stroke="#0891B2" stroke-width="1.2"/>
  <rect x="22" y="29.25" width="5.5" height="5.5" rx="1" stroke="#0891B2" stroke-width="1.2"/>
  <rect x="29.25" y="29.25" width="5.5" height="5.5" rx="1" stroke="#0891B2" stroke-width="1.2"/>
  <rect x="36.5" y="29.25" width="5.5" height="5.5" rx="1" stroke="#0891B2" stroke-width="1.2"/>
  <rect x="22" y="36.5" width="5.5" height="5.5" rx="1" stroke="#0891B2" stroke-width="1.2"/>
  <rect x="29.25" y="36.5" width="5.5" height="5.5" rx="1" stroke="#0891B2" stroke-width="1.2"/>
  <rect x="36.5" y="36.5" width="5.5" height="5.5" rx="1" stroke="#0891B2" stroke-width="1.2"/>
  <rect x="22" y="43.75" width="5.5" height="5.5" rx="1" stroke="#0891B2" stroke-width="1.2"/>
  <rect x="29.25" y="43.75" width="5.5" height="5.5" rx="1" stroke="#0891B2" stroke-width="1.2"/>
  <rect x="36.5" y="43.75" width="5.5" height="5.5" rx="1" stroke="#0891B2" stroke-width="1.2"/>
</svg>
